<svg version="1.1" id="Layer_1" xmlns="http://www.w3.org/2000/svg" xmlns:xlink="http://www.w3.org/1999/xlink" x="0px" y="0px"
	 width="100%" viewBox="0 0 293 177" enable-background="new 0 0 293 177" xml:space="preserve">
<path fill="#000000" opacity="1.000000" stroke="none" 
	d="
M218.000000,178.000000 
	C145.333344,178.000000 73.166687,178.000000 1.000019,178.000000 
	C1.000013,119.000015 1.000013,60.000031 1.000006,1.000035 
	C98.666634,1.000023 196.333267,1.000023 293.999939,1.000012 
	C293.999939,59.999966 293.999939,118.999931 293.999969,177.999939 
	C268.833344,178.000000 243.666672,178.000000 218.000000,178.000000 
M166.028854,100.970688 
	C172.190964,94.981110 178.468048,89.102402 184.430283,82.920082 
	C185.832153,81.466476 186.845764,79.001938 186.887527,76.978714 
	C187.120438,65.700195 187.027908,54.414188 186.962891,43.131226 
	C186.954941,41.753944 186.445084,40.379547 186.022217,38.307186 
	C180.152267,32.250488 174.458176,26.005047 168.295456,20.262543 
	C166.641693,18.721539 163.572464,18.150879 161.132080,18.097857 
	C150.637756,17.869846 140.135422,17.966059 129.636627,18.038132 
	C128.085556,18.048779 126.537956,18.563269 124.288422,18.984314 
	C117.761024,25.271166 111.183151,31.507515 104.774773,37.913422 
	C104.034096,38.653816 104.033974,40.336273 104.031296,41.582687 
	C104.003868,54.352325 104.046913,67.122116 104.115868,80.599426 
	C104.847145,81.668175 105.440247,82.872314 106.332657,83.783203 
	C111.256500,88.808983 116.136398,93.889938 121.302032,98.658791 
	C122.710701,99.959259 125.046425,100.874489 126.969894,100.898270 
	C139.768448,101.056480 152.570572,100.924660 166.028854,100.970688 
M156.000275,130.379562 
	C155.227600,125.081253 154.454941,119.782944 153.647018,114.242973 
	C150.275406,114.242973 146.871872,114.242973 142.748001,114.242973 
	C142.748001,127.752007 142.748001,141.106140 142.748001,154.722519 
	C145.032227,154.722519 147.933945,154.722519 150.485931,154.722519 
	C150.485931,146.284866 150.485931,138.102982 150.485931,129.921082 
	C150.606583,129.902084 150.727234,129.883072 150.847885,129.864075 
	C152.412964,137.755554 153.978043,145.647034 155.591797,153.783981 
	C157.809830,153.783981 160.229965,153.783981 162.637543,153.783981 
	C164.169662,146.581161 165.661514,139.567673 167.153366,132.554169 
	C167.971893,138.016525 168.444656,143.382126 167.861771,148.630493 
	C166.973984,156.624420 166.664093,156.595444 174.172241,155.882217 
	C174.425217,155.858185 174.644821,155.483078 174.503113,155.610519 
	C174.503113,141.480896 174.503113,127.698708 174.503113,113.976700 
	C166.498550,111.337349 165.214722,112.365135 163.891724,120.048080 
	C162.751358,126.670563 160.718414,133.139343 159.080093,139.676086 
	C158.748413,139.652618 158.416733,139.629150 158.085068,139.605682 
	C157.391922,136.821899 156.698776,134.038132 156.000275,130.379562 
M94.851608,155.932205 
	C96.793633,155.932205 98.735657,155.932205 101.011063,155.932205 
	C101.011063,146.527054 101.289116,137.549713 100.817276,128.611938 
	C100.698006,126.352676 98.510353,122.786583 96.693550,122.374123 
	C94.146980,121.795990 91.057755,123.608170 87.942993,124.469070 
	C86.431633,123.893600 83.423073,121.584106 81.575577,122.294434 
	C78.065903,123.643829 74.514954,122.293510 70.609848,123.439926 
	C70.609848,134.302902 70.609848,144.977982 70.609848,155.714676 
	C72.578026,155.714676 74.638268,155.714676 76.999557,155.714676 
	C76.999557,151.629684 76.992340,147.825394 77.001625,144.021149 
	C77.010567,140.358002 76.842262,136.677078 77.175171,133.042740 
	C77.273216,131.972412 78.810875,131.033966 79.688782,130.035065 
	C80.457909,130.939774 81.755814,131.767441 81.900833,132.763062 
	C82.414894,136.292191 82.786514,139.882233 82.735664,143.442398 
	C82.682579,147.159256 82.079033,150.868256 81.718689,154.554581 
	C88.994194,155.332535 88.995651,155.332535 89.005432,149.113327 
	C89.008568,147.114700 88.900307,145.109894 89.021774,143.118820 
	C89.240112,139.539383 89.386093,135.930237 90.028618,132.418839 
	C90.200783,131.477951 92.059563,130.845688 93.144058,130.071747 
	C93.760345,131.108963 94.923668,132.155945 94.905350,133.181824 
	C94.772911,140.596878 94.401527,148.007645 94.851608,155.932205 
M189.524124,151.987030 
	C188.349350,149.918335 186.122620,147.819656 186.180603,145.786087 
	C186.442093,136.613342 186.843903,127.380249 188.250641,118.333023 
	C188.905121,114.123871 187.604630,113.853134 184.507202,114.002449 
	C183.082870,114.071106 181.659454,114.158775 179.989304,114.251495 
	C179.989304,125.239784 179.562546,135.893173 180.139191,146.491959 
	C180.524246,153.569534 183.539581,156.580154 188.180405,156.997818 
	C195.939697,157.696136 199.794281,156.102554 200.709000,148.086288 
	C201.983154,136.919937 201.029816,125.499428 201.029816,114.330475 
	C198.951370,114.330475 196.538544,114.330475 193.878067,114.330475 
	C194.276016,118.253487 194.706284,121.818092 194.983398,125.394562 
	C195.349838,130.123993 196.525604,135.048706 195.625992,139.543762 
	C194.772263,143.809570 197.004364,150.016937 189.524124,151.987030 
M208.131775,141.378113 
	C205.717148,144.309052 205.120377,147.469559 206.969086,150.912323 
	C209.164719,155.001083 212.483902,156.350830 217.167389,156.105957 
	C224.768951,155.708542 227.467896,154.038177 229.576721,146.935455 
	C230.843918,142.667435 227.928421,135.786758 223.836029,132.942337 
	C220.629745,130.713806 217.158661,128.641556 214.613525,125.780754 
	C213.329208,124.337166 213.001404,120.928413 213.808273,119.099724 
	C214.426590,117.698364 217.501205,117.380798 220.281464,116.259254 
	C218.789841,122.583054 219.497314,124.788170 222.673172,124.862656 
	C224.578384,124.907341 227.706879,124.154297 228.162231,122.954140 
	C228.896103,121.019989 228.529831,118.048981 227.465805,116.176605 
	C224.987762,111.815964 216.601883,110.384506 211.899292,113.020668 
	C206.954697,115.792480 204.259933,123.029373 207.101807,127.832672 
	C208.930023,130.922714 211.734070,133.676697 214.659851,135.817032 
	C218.619354,138.713593 223.703445,140.679916 222.814804,146.735611 
	C222.552307,148.524460 220.478729,150.462585 218.736588,151.471710 
	C217.597092,152.131760 215.560806,151.243530 214.869003,151.161118 
	C215.426041,148.190277 216.351517,146.210495 216.008820,144.482193 
	C215.235870,140.584122 211.946808,140.818314 208.131775,141.378113 
M247.030487,121.783203 
	C243.593964,130.402191 244.228699,139.092026 247.070618,147.628311 
	C249.343002,154.453827 254.920563,157.763977 261.904633,156.975250 
	C266.119202,156.499283 268.694977,153.759750 269.896332,149.970078 
	C271.051849,146.325073 271.269226,142.328339 267.390808,140.163849 
	C265.844025,139.300613 262.848511,139.479355 261.429413,140.481781 
	C260.466431,141.162064 260.643250,144.251175 261.204651,145.971115 
	C261.501648,146.881058 263.709808,147.167191 266.466675,148.330658 
	C263.630859,150.273209 261.762085,152.407806 259.642639,152.695465 
	C258.299164,152.877792 255.720520,150.592453 255.175476,148.929016 
	C252.048706,139.386017 252.089752,129.663177 255.099945,120.080048 
	C256.024933,117.135246 258.324066,116.113342 261.564545,117.821213 
	C261.366180,118.949707 261.093964,119.975761 261.020508,121.015862 
	C260.813416,123.946999 262.196472,126.500565 265.071289,125.748085 
	C267.003113,125.242424 269.313873,122.541603 269.673737,120.507729 
	C270.245422,117.276611 265.602966,113.375626 261.912842,113.003181 
	C254.635300,112.268677 250.748260,114.433006 247.030487,121.783203 
M125.998947,130.569641 
	C125.557213,125.121574 122.952690,121.684120 117.953522,121.131813 
	C113.680267,120.659714 109.719032,121.965157 107.966797,126.448975 
	C106.748558,129.566345 104.965515,132.968201 105.266197,136.065140 
	C105.831863,141.891266 107.020912,147.884964 109.286293,153.244476 
	C111.039299,157.391815 116.122963,158.036133 120.065964,156.769897 
	C122.637741,155.943985 125.285919,153.249527 126.391624,150.730148 
	C127.089813,149.139328 125.007767,146.328323 124.172791,144.064621 
	C122.175934,144.860703 119.568253,145.167389 118.399086,146.626617 
	C117.632248,147.583710 118.944839,150.206894 119.362656,152.263641 
	C115.839928,154.242249 114.854874,151.420151 113.652733,149.162613 
	C112.338707,146.694977 112.802521,145.071396 115.565529,143.700165 
	C120.715187,141.144531 125.898010,138.360870 125.998947,130.569641 
M41.604160,130.899582 
	C42.425972,126.310104 40.756634,122.857986 36.567757,120.918327 
	C32.771027,119.160271 28.961916,119.336258 25.515919,122.010803 
	C21.929142,124.794609 20.709026,128.887375 22.461592,132.586365 
	C24.280329,136.424988 27.595478,139.597198 30.452042,142.891022 
	C34.272614,147.296417 34.008621,150.568497 29.006067,152.912384 
	C29.196871,151.785797 29.686670,150.769501 29.437704,149.988770 
	C28.847397,148.137619 28.221664,146.114105 26.975662,144.732635 
	C26.345970,144.034470 23.690935,144.004349 23.087681,144.682617 
	C21.836714,146.089111 20.468462,148.299866 20.712208,149.948807 
	C21.327419,154.110703 24.985823,156.429932 28.570366,156.561844 
	C31.957443,156.686493 36.026520,155.483185 38.678856,153.424896 
	C41.220592,151.452454 42.322205,147.463547 39.977455,144.162048 
	C37.720577,140.984314 34.820316,138.265930 32.532368,135.106979 
	C31.049097,133.059052 29.864931,130.671448 29.132256,128.258286 
	C28.799339,127.161774 29.552896,124.848862 30.406057,124.487862 
	C31.665627,123.954887 33.453922,124.671448 36.376118,125.016258 
	C32.655983,128.236816 32.233212,130.420135 35.226063,132.812317 
	C37.982170,135.015274 39.518993,133.666351 41.604160,130.899582 
M44.006691,136.821823 
	C44.341305,140.389618 44.288387,144.049393 45.107868,147.502106 
	C46.150318,151.894226 48.449585,155.863785 53.293743,156.892441 
	C57.463615,157.777939 61.006664,155.869034 63.186203,152.325821 
	C68.237953,144.113281 68.181511,135.263672 64.676979,126.682091 
	C63.325848,123.373566 60.089981,120.822723 55.650139,120.944374 
	C51.604420,121.055222 48.830635,122.917259 47.294548,126.408897 
	C45.948521,129.468521 45.110188,132.751495 44.006691,136.821823 
M240.492645,114.030647 
	C238.068909,113.595512 235.645157,113.160378 233.729599,112.816483 
	C233.729599,127.630157 233.729599,141.614685 233.729599,155.766022 
	C236.502563,155.766022 238.555496,155.766022 240.936050,155.766022 
	C240.936050,141.951630 240.936050,128.373093 240.492645,114.030647 
z"/>
<path fill="#E7305E" opacity="1.000000" stroke="none" 
	d="
M124.988747,18.844650 
	C126.537956,18.563269 128.085556,18.048779 129.636627,18.038132 
	C140.135422,17.966059 150.637756,17.869846 161.132080,18.097857 
	C163.572464,18.150879 166.641693,18.721539 168.295456,20.262543 
	C174.458176,26.005047 180.152267,32.250488 185.978668,38.979385 
	C179.298798,46.293823 172.662491,52.936062 165.825943,59.341709 
	C158.857010,52.392200 152.088318,45.679279 145.160370,38.657928 
	C138.330338,31.847879 131.659531,25.346266 124.988747,18.844650 
z"/>
<path fill="#FAA030" opacity="1.000000" stroke="none" 
	d="
M124.638580,18.914482 
	C131.659531,25.346266 138.330338,31.847879 144.967407,38.956905 
	C138.250641,46.367149 131.567581,53.169987 124.574539,60.089676 
	C117.533119,66.768303 110.801697,73.330078 104.070274,79.891861 
	C104.046913,67.122116 104.003868,54.352325 104.031296,41.582687 
	C104.033974,40.336273 104.034096,38.653816 104.774773,37.913422 
	C111.183151,31.507515 117.761024,25.271166 124.638580,18.914482 
z"/>
<path fill="#71E73B" opacity="1.000000" stroke="none" 
	d="
M166.026184,59.578293 
	C172.662491,52.936062 179.298798,46.293823 186.051483,39.327698 
	C186.445084,40.379547 186.954941,41.753944 186.962891,43.131226 
	C187.027908,54.414188 187.120438,65.700195 186.887527,76.978714 
	C186.845764,79.001938 185.832153,81.466476 184.430283,82.920082 
	C178.468048,89.102402 172.190964,94.981110 165.552460,100.613098 
	C158.681839,93.810432 152.287613,87.365349 146.038422,80.617554 
	C152.797699,73.402657 159.411942,66.490471 166.026184,59.578293 
z"/>
<path fill="#2BB9FF" opacity="1.000000" stroke="none" 
	d="
M145.893372,80.920265 
	C152.287613,87.365349 158.681839,93.810432 165.223816,100.571320 
	C152.570572,100.924660 139.768448,101.056480 126.969894,100.898270 
	C125.046425,100.874489 122.710701,99.959259 121.302032,98.658791 
	C116.136398,93.889938 111.256500,88.808983 106.332657,83.783203 
	C105.440247,82.872314 104.847145,81.668175 104.093071,80.245644 
	C110.801697,73.330078 117.533119,66.768303 124.691566,60.411102 
	C132.043518,67.383873 138.968445,74.152069 145.893372,80.920265 
z"/>
<path fill="#2CB9FF" opacity="1.000000" stroke="none" 
	d="
M156.002945,130.816956 
	C156.698776,134.038132 157.391922,136.821899 158.085068,139.605682 
	C158.416733,139.629150 158.748413,139.652618 159.080093,139.676086 
	C160.718414,133.139343 162.751358,126.670563 163.891724,120.048080 
	C165.214722,112.365135 166.498550,111.337349 174.503113,113.976700 
	C174.503113,127.698708 174.503113,141.480896 174.503113,155.610519 
	C174.644821,155.483078 174.425217,155.858185 174.172241,155.882217 
	C166.664093,156.595444 166.973984,156.624420 167.861771,148.630493 
	C168.444656,143.382126 167.971893,138.016525 167.153366,132.554169 
	C165.661514,139.567673 164.169662,146.581161 162.637543,153.783981 
	C160.229965,153.783981 157.809830,153.783981 155.591797,153.783981 
	C153.978043,145.647034 152.412964,137.755554 150.847885,129.864075 
	C150.727234,129.883072 150.606583,129.902084 150.485931,129.921082 
	C150.485931,138.102982 150.485931,146.284866 150.485931,154.722519 
	C147.933945,154.722519 145.032227,154.722519 142.748001,154.722519 
	C142.748001,141.106140 142.748001,127.752007 142.748001,114.242973 
	C146.871872,114.242973 150.275406,114.242973 153.647018,114.242973 
	C154.454941,119.782944 155.227600,125.081253 156.002945,130.816956 
z"/>
<path fill="#2CB9FF" opacity="1.000000" stroke="none" 
	d="
M94.478722,155.675995 
	C94.401527,148.007645 94.772911,140.596878 94.905350,133.181824 
	C94.923668,132.155945 93.760345,131.108963 93.144058,130.071747 
	C92.059563,130.845688 90.200783,131.477951 90.028618,132.418839 
	C89.386093,135.930237 89.240112,139.539383 89.021774,143.118820 
	C88.900307,145.109894 89.008568,147.114700 89.005432,149.113327 
	C88.995651,155.332535 88.994194,155.332535 81.718689,154.554581 
	C82.079033,150.868256 82.682579,147.159256 82.735664,143.442398 
	C82.786514,139.882233 82.414894,136.292191 81.900833,132.763062 
	C81.755814,131.767441 80.457909,130.939774 79.688782,130.035065 
	C78.810875,131.033966 77.273216,131.972412 77.175171,133.042740 
	C76.842262,136.677078 77.010567,140.358002 77.001625,144.021149 
	C76.992340,147.825394 76.999557,151.629684 76.999557,155.714676 
	C74.638268,155.714676 72.578026,155.714676 70.609848,155.714676 
	C70.609848,144.977982 70.609848,134.302902 70.609848,123.439926 
	C74.514954,122.293510 78.065903,123.643829 81.575577,122.294434 
	C83.423073,121.584106 86.431633,123.893600 87.942993,124.469070 
	C91.057755,123.608170 94.146980,121.795990 96.693550,122.374123 
	C98.510353,122.786583 100.698006,126.352676 100.817276,128.611938 
	C101.289116,137.549713 101.011063,146.527054 101.011063,155.932205 
	C98.735657,155.932205 96.793633,155.932205 94.478722,155.675995 
z"/>
<path fill="#2CB9FF" opacity="1.000000" stroke="none" 
	d="
M189.927551,151.982819 
	C197.004364,150.016937 194.772263,143.809570 195.625992,139.543762 
	C196.525604,135.048706 195.349838,130.123993 194.983398,125.394562 
	C194.706284,121.818092 194.276016,118.253487 193.878067,114.330475 
	C196.538544,114.330475 198.951370,114.330475 201.029816,114.330475 
	C201.029816,125.499428 201.983154,136.919937 200.709000,148.086288 
	C199.794281,156.102554 195.939697,157.696136 188.180405,156.997818 
	C183.539581,156.580154 180.524246,153.569534 180.139191,146.491959 
	C179.562546,135.893173 179.989304,125.239784 179.989304,114.251495 
	C181.659454,114.158775 183.082870,114.071106 184.507202,114.002449 
	C187.604630,113.853134 188.905121,114.123871 188.250641,118.333023 
	C186.843903,127.380249 186.442093,136.613342 186.180603,145.786087 
	C186.122620,147.819656 188.349350,149.918335 189.927551,151.982819 
z"/>
<path fill="#2CB9FF" opacity="1.000000" stroke="none" 
	d="
M208.511200,141.213715 
	C211.946808,140.818314 215.235870,140.584122 216.008820,144.482193 
	C216.351517,146.210495 215.426041,148.190277 214.869003,151.161118 
	C215.560806,151.243530 217.597092,152.131760 218.736588,151.471710 
	C220.478729,150.462585 222.552307,148.524460 222.814804,146.735611 
	C223.703445,140.679916 218.619354,138.713593 214.659851,135.817032 
	C211.734070,133.676697 208.930023,130.922714 207.101807,127.832672 
	C204.259933,123.029373 206.954697,115.792480 211.899292,113.020668 
	C216.601883,110.384506 224.987762,111.815964 227.465805,116.176605 
	C228.529831,118.048981 228.896103,121.019989 228.162231,122.954140 
	C227.706879,124.154297 224.578384,124.907341 222.673172,124.862656 
	C219.497314,124.788170 218.789841,122.583054 220.281464,116.259254 
	C217.501205,117.380798 214.426590,117.698364 213.808273,119.099724 
	C213.001404,120.928413 213.329208,124.337166 214.613525,125.780754 
	C217.158661,128.641556 220.629745,130.713806 223.836029,132.942337 
	C227.928421,135.786758 230.843918,142.667435 229.576721,146.935455 
	C227.467896,154.038177 224.768951,155.708542 217.167389,156.105957 
	C212.483902,156.350830 209.164719,155.001083 206.969086,150.912323 
	C205.120377,147.469559 205.717148,144.309052 208.511200,141.213715 
z"/>
<path fill="#2CB9FF" opacity="1.000000" stroke="none" 
	d="
M247.215851,121.433289 
	C250.748260,114.433006 254.635300,112.268677 261.912842,113.003181 
	C265.602966,113.375626 270.245422,117.276611 269.673737,120.507729 
	C269.313873,122.541603 267.003113,125.242424 265.071289,125.748085 
	C262.196472,126.500565 260.813416,123.946999 261.020508,121.015862 
	C261.093964,119.975761 261.366180,118.949707 261.564545,117.821213 
	C258.324066,116.113342 256.024933,117.135246 255.099945,120.080048 
	C252.089752,129.663177 252.048706,139.386017 255.175476,148.929016 
	C255.720520,150.592453 258.299164,152.877792 259.642639,152.695465 
	C261.762085,152.407806 263.630859,150.273209 266.466675,148.330658 
	C263.709808,147.167191 261.501648,146.881058 261.204651,145.971115 
	C260.643250,144.251175 260.466431,141.162064 261.429413,140.481781 
	C262.848511,139.479355 265.844025,139.300613 267.390808,140.163849 
	C271.269226,142.328339 271.051849,146.325073 269.896332,149.970078 
	C268.694977,153.759750 266.119202,156.499283 261.904633,156.975250 
	C254.920563,157.763977 249.343002,154.453827 247.070618,147.628311 
	C244.228699,139.092026 243.593964,130.402191 247.215851,121.433289 
z"/>
<path fill="#2DBAFF" opacity="1.000000" stroke="none" 
	d="
M125.998962,130.989929 
	C125.898010,138.360870 120.715187,141.144531 115.565529,143.700165 
	C112.802521,145.071396 112.338707,146.694977 113.652733,149.162613 
	C114.854874,151.420151 115.839928,154.242249 119.362656,152.263641 
	C118.944839,150.206894 117.632248,147.583710 118.399086,146.626617 
	C119.568253,145.167389 122.175934,144.860703 124.172791,144.064621 
	C125.007767,146.328323 127.089813,149.139328 126.391624,150.730148 
	C125.285919,153.249527 122.637741,155.943985 120.065964,156.769897 
	C116.122963,158.036133 111.039299,157.391815 109.286293,153.244476 
	C107.020912,147.884964 105.831863,141.891266 105.266197,136.065140 
	C104.965515,132.968201 106.748558,129.566345 107.966797,126.448975 
	C109.719032,121.965157 113.680267,120.659714 117.953522,121.131813 
	C122.952690,121.684120 125.557213,125.121574 125.998962,130.989929 
M119.136353,133.396042 
	C119.416588,132.828293 120.059540,132.136368 119.914955,131.714081 
	C119.251289,129.775742 118.367462,127.912773 117.562645,126.022743 
	C116.146515,127.412277 113.851906,128.612747 113.503418,130.232056 
	C112.847511,133.279831 113.314247,136.569199 113.314247,139.758133 
	C113.644638,139.958374 113.975029,140.158630 114.305420,140.358887 
	C115.861412,138.294983 117.417404,136.231079 119.136353,133.396042 
z"/>
<path fill="#2DBAFF" opacity="1.000000" stroke="none" 
	d="
M41.338428,131.197327 
	C39.518993,133.666351 37.982170,135.015274 35.226063,132.812317 
	C32.233212,130.420135 32.655983,128.236816 36.376118,125.016258 
	C33.453922,124.671448 31.665627,123.954887 30.406057,124.487862 
	C29.552896,124.848862 28.799339,127.161774 29.132256,128.258286 
	C29.864931,130.671448 31.049097,133.059052 32.532368,135.106979 
	C34.820316,138.265930 37.720577,140.984314 39.977455,144.162048 
	C42.322205,147.463547 41.220592,151.452454 38.678856,153.424896 
	C36.026520,155.483185 31.957443,156.686493 28.570366,156.561844 
	C24.985823,156.429932 21.327419,154.110703 20.712208,149.948807 
	C20.468462,148.299866 21.836714,146.089111 23.087681,144.682617 
	C23.690935,144.004349 26.345970,144.034470 26.975662,144.732635 
	C28.221664,146.114105 28.847397,148.137619 29.437704,149.988770 
	C29.686670,150.769501 29.196871,151.785797 29.006067,152.912384 
	C34.008621,150.568497 34.272614,147.296417 30.452042,142.891022 
	C27.595478,139.597198 24.280329,136.424988 22.461592,132.586365 
	C20.709026,128.887375 21.929142,124.794609 25.515919,122.010803 
	C28.961916,119.336258 32.771027,119.160271 36.567757,120.918327 
	C40.756634,122.857986 42.425972,126.310104 41.338428,131.197327 
z"/>
<path fill="#2DBAFF" opacity="1.000000" stroke="none" 
	d="
M44.027138,136.378815 
	C45.110188,132.751495 45.948521,129.468521 47.294548,126.408897 
	C48.830635,122.917259 51.604420,121.055222 55.650139,120.944374 
	C60.089981,120.822723 63.325848,123.373566 64.676979,126.682091 
	C68.181511,135.263672 68.237953,144.113281 63.186203,152.325821 
	C61.006664,155.869034 57.463615,157.777939 53.293743,156.892441 
	C48.449585,155.863785 46.150318,151.894226 45.107868,147.502106 
	C44.288387,144.049393 44.341305,140.389618 44.027138,136.378815 
M59.954380,141.047211 
	C59.627834,136.834290 59.439407,132.602417 58.865406,128.423477 
	C58.741398,127.520668 57.289745,126.274055 56.338787,126.166588 
	C55.476349,126.069122 53.941418,127.106018 53.598389,127.990181 
	C50.840652,135.098251 49.873302,142.422180 52.128773,149.854340 
	C52.404255,150.762115 53.958885,151.816376 54.927280,151.822876 
	C55.825054,151.828903 57.203144,150.694427 57.543655,149.760849 
	C58.470390,147.219971 58.959953,144.519669 59.954380,141.047211 
z"/>
<path fill="#2CB9FF" opacity="1.000000" stroke="none" 
	d="
M240.714355,114.412598 
	C240.936050,128.373093 240.936050,141.951630 240.936050,155.766022 
	C238.555496,155.766022 236.502563,155.766022 233.729599,155.766022 
	C233.729599,141.614685 233.729599,127.630157 233.729599,112.816483 
	C235.645157,113.160378 238.068909,113.595512 240.714355,114.412598 
z"/>
<path fill="#000000" opacity="1.000000" stroke="none" 
	d="
M146.038422,80.617554 
	C138.968445,74.152069 132.043518,67.383873 125.001556,60.294250 
	C131.567581,53.169987 138.250641,46.367149 145.126663,39.265335 
	C152.088318,45.679279 158.857010,52.392200 165.825943,59.341702 
	C159.411942,66.490471 152.797699,73.402657 146.038422,80.617554 
z"/>
<path fill="#000000" opacity="1.000000" stroke="none" 
	d="
M119.054871,133.781601 
	C117.417404,136.231079 115.861412,138.294983 114.305420,140.358887 
	C113.975029,140.158630 113.644638,139.958374 113.314247,139.758133 
	C113.314247,136.569199 112.847511,133.279831 113.503418,130.232056 
	C113.851906,128.612747 116.146515,127.412277 117.562653,126.022751 
	C118.367462,127.912773 119.251289,129.775742 119.914955,131.714081 
	C120.059540,132.136368 119.416588,132.828293 119.054871,133.781601 
z"/>
<path fill="#000000" opacity="1.000000" stroke="none" 
	d="
M59.788574,141.464874 
	C58.959953,144.519669 58.470390,147.219971 57.543655,149.760849 
	C57.203144,150.694427 55.825054,151.828903 54.927280,151.822876 
	C53.958885,151.816376 52.404255,150.762115 52.128773,149.854340 
	C49.873302,142.422180 50.840652,135.098251 53.598389,127.990181 
	C53.941418,127.106018 55.476349,126.069122 56.338787,126.166588 
	C57.289745,126.274055 58.741398,127.520668 58.865406,128.423477 
	C59.439407,132.602417 59.627834,136.834290 59.788574,141.464874 
z"/>
</svg>